<svg xmlns="http://www.w3.org/2000/svg" width="66" height="65" fill="none" viewBox="0 0 66 65"><path fill="#F2EFE0" stroke="#E5914D" stroke-width="2" d="M62.1712 33.3649L63.6683 32.4992L62.1712 31.6335L56.4412 28.3202L60.7035 23.2439L61.8197 21.9146L60.1099 21.6158L53.5957 20.4772L55.8635 14.2417L56.4567 12.6106L54.748 12.9155L48.2416 14.0767L48.2566 7.44137L48.2605 5.69975L46.7544 6.57435L41.0348 9.89572L38.7792 3.65986L38.1861 2.01997L37.0703 3.36019L32.8345 8.44823L28.5987 3.36019L27.4829 2.01997L26.8898 3.65986L24.6342 9.8956L18.9163 6.5744L17.4101 5.69955L17.414 7.44137L17.429 14.0767L10.9226 12.9155L9.21425 12.6106L9.80705 14.2415L12.0735 20.4772L5.56068 21.6158L3.85098 21.9147L4.96707 23.2439L9.22943 28.3202L3.49942 31.6335L2.00231 32.4992L3.49942 33.3649L9.22957 36.6783L4.96698 41.7562L3.85124 43.0853L5.56068 43.3842L12.0735 44.5228L9.80705 50.7585L9.21423 52.3894L10.9226 52.0845L17.4276 50.9233L17.414 57.5588L17.4105 59.3002L18.9163 58.4256L24.6342 55.1044L26.8898 61.3401L27.4829 62.98L28.5987 61.6398L32.8345 56.5518L37.0703 61.6398L38.1861 62.98L38.7792 61.3401L41.0348 55.1043L46.7544 58.4257L48.2605 59.3002L48.2566 57.5586L48.2416 50.9233L54.748 52.0845L56.4567 52.3894L55.8635 50.7583L53.5957 44.5228L60.1099 43.3842L61.8194 43.0854L60.7036 41.7562L56.441 36.6783L62.1712 33.3649Z"/></svg>