<svg width="1440" height="166" viewBox="0 0 1440 166" fill="none" xmlns="http://www.w3.org/2000/svg">
<path d="M1410.05 104.477L1409.62 104.343H1409.17C1402.72 104.343 1397.99 105.256 1394.24 106.897C1390.46 108.551 1387.92 110.849 1385.72 113.209C1384.99 113.995 1384.3 114.781 1383.62 115.56C1380.26 119.384 1377.05 123.04 1369.76 125.799C1361.63 128.879 1353.93 125.726 1347.12 120.462C1342.1 116.579 1338.12 112.028 1335.11 108.586C1333.98 107.284 1332.98 106.141 1332.11 105.251C1330.25 103.342 1326.78 101.398 1322.64 99.9829C1318.39 98.535 1313.11 97.5242 1307.4 97.7337C1295.83 98.1584 1282.75 103.604 1273.38 119.845C1269.01 127.408 1265.16 132.972 1261.61 136.896C1258.05 140.82 1254.92 142.955 1252.03 143.904C1246.42 145.739 1240.36 143.513 1231.31 137.053C1222.22 130.566 1215.94 126.954 1209.61 125.784C1203.23 124.605 1197.18 125.986 1188.9 128.309C1181 130.521 1174.72 130.447 1169.2 128.498C1163.63 126.534 1158.5 122.543 1153.14 116.282C1147.39 109.568 1142.08 105.446 1137.78 102.988C1133.7 100.657 1130.36 99.7358 1128.35 99.6791C1118.6 98.5873 1111.54 101.431 1106.09 106.653C1100.82 111.709 1097.2 118.884 1093.84 126.035C1093.4 126.985 1092.96 127.936 1092.51 128.885C1086.09 142.715 1079.81 156.221 1065.08 161.566C1061.18 162.979 1057.93 163.255 1055.17 162.795C1052.42 162.336 1049.96 161.111 1047.69 159.22C1043.04 155.351 1039.34 148.841 1036 141.092C1034.34 137.263 1032.82 133.238 1031.31 129.217C1031.16 128.81 1031.01 128.404 1030.85 127.997C1029.51 124.407 1028.18 120.831 1026.8 117.512C1025.26 113.819 1023.63 110.333 1021.81 107.385C1019.99 104.458 1017.87 101.867 1015.27 100.166C1005.91 94.0458 996.871 94.8277 988.998 98.1639C982.246 101.025 976.147 105.861 971.275 109.723C970.628 110.236 970.003 110.732 969.4 111.204C967.473 112.713 964.692 113.487 960.981 113.532C957.284 113.576 952.984 112.892 948.344 111.811C943.997 110.799 939.503 109.475 935.07 108.17L934.21 107.917C929.552 106.547 924.944 105.21 920.879 104.401C916.383 103.507 912.597 104.017 909.188 105.534C905.882 107.006 903.086 109.36 900.454 111.834C899.538 112.695 898.631 113.58 897.712 114.475C893.225 118.848 888.466 123.485 881.173 126.929C877.223 128.795 874.071 128.709 871.151 127.581C868.041 126.379 864.985 123.917 861.527 120.555C860.242 119.306 858.91 117.934 857.515 116.497C851.703 110.512 844.804 103.407 835.735 99.4123C823.712 94.1163 812.926 98.2755 804.121 105.475C795.397 112.607 788.116 123.083 782.566 131.639C777.479 139.482 771.32 142.585 765.505 143.256C759.553 143.942 753.649 142.108 749.283 139.509C746.986 138.143 744.792 136.641 742.555 135.086C742.306 134.913 742.055 134.739 741.805 134.564C739.829 133.189 737.802 131.779 735.722 130.472C731.001 127.506 725.788 124.933 719.39 124.076C713.338 123.264 706.772 124.739 700.632 126.118C700.226 126.209 699.821 126.3 699.419 126.39C692.677 127.893 686.268 129.172 680.09 128.232C677.628 127.857 675.322 126.352 672.72 123.746C671.013 122.037 669.418 120.119 667.662 118.008C666.655 116.798 665.596 115.523 664.431 114.187C658.275 107.128 650.199 99.6763 636.755 99.6763C629.53 99.6763 623.712 103.5 618.901 108.722C614.114 113.917 610.007 120.834 606.191 127.737C605.239 129.46 604.306 131.18 603.383 132.882C600.539 138.123 597.79 143.19 594.872 147.626C590.982 153.54 587.152 157.74 583.058 159.574C578.636 161.555 574.937 161.85 571.804 161.17C568.641 160.484 565.78 158.745 563.168 156.206C557.863 151.05 554.016 143.023 551.267 135.831C548.45 128.461 544.579 119.955 539.948 112.782C535.41 105.752 529.758 99.3895 523.162 97.2321C520.204 96.2647 516.938 96.4975 513.837 97.2468C510.703 98.0041 507.469 99.3545 504.409 100.929C498.429 104.007 492.764 108.125 489.249 111.076C483.428 114.219 478.683 115.735 474.59 116.192C470.47 116.652 466.851 116.058 463.276 114.764C459.639 113.448 456.061 111.418 451.99 108.957C451.297 108.538 450.59 108.107 449.868 107.667C446.411 105.559 442.609 103.241 438.337 101.045C432.467 98.0283 426.995 98.1693 421.966 100.123C417.118 102.007 412.751 105.548 408.782 109.137C407.445 110.347 406.162 111.551 404.907 112.73C402.285 115.193 399.785 117.541 397.168 119.576C393.35 122.544 389.843 124.367 386.338 124.573C378.914 125.009 373.482 120.758 366.58 114.517C366.099 114.083 365.613 113.64 365.12 113.191C358.752 107.394 351.249 100.564 340.484 97.2186C333.786 95.1372 327.699 97.434 322.464 101.487C317.289 105.494 312.565 111.488 308.249 117.686C306.074 120.809 303.961 124.047 301.921 127.181L301.62 127.644C299.679 130.628 297.808 133.503 295.977 136.152C292.033 141.857 288.607 145.989 285.576 147.815C283.452 149.095 280.192 148.699 275.001 145.89C271.074 143.766 266.828 140.706 262.266 137.419C261.001 136.508 259.712 135.58 258.399 134.649C252.525 130.484 246.179 126.285 240.026 124.271C233.711 122.204 227.129 122.313 221.532 127.427C218.411 130.278 215.159 131.46 211.915 131.605C208.605 131.753 205.116 130.825 201.632 129.134C194.616 125.729 188.241 119.533 184.544 114.825L184.446 114.7L184.335 114.586C184.193 114.44 184.04 114.281 183.877 114.11C180.099 110.18 170.422 100.112 151.983 102.82C146.242 103.662 140.945 107.099 136.309 111.414C131.636 115.763 127.362 121.261 123.676 126.709C119.98 132.172 116.814 137.676 114.38 142.088C113.53 143.63 112.76 145.053 112.093 146.287C111.809 146.813 111.543 147.304 111.298 147.755C110.438 149.338 109.884 150.32 109.577 150.77C108.13 152.895 105.301 155.492 101.605 157.575C97.9339 159.644 93.6471 161.07 89.377 161.127C85.1717 161.183 80.9216 159.919 77.0934 156.494C73.218 153.027 69.5746 147.163 67.025 137.679C61.6428 117.658 54.7124 107.227 47.686 101.738C41.428 96.8489 35.354 96.1518 31.5768 95.7184C31.0871 95.6622 30.6359 95.6104 30.228 95.5545C28.8788 95.3696 27.4382 95.6168 26.1366 95.9735C24.7814 96.3449 23.3 96.9149 21.7663 97.6028C18.6964 98.9796 15.1702 100.941 11.6118 103.107C6.56622 106.179 1.3222 109.743 -3 112.834V3H1443V113.196C1441.25 113.176 1439.15 113.085 1436.99 112.875C1433.4 112.525 1429.91 111.869 1427.53 110.821C1421.72 108.26 1413.45 105.523 1410.05 104.477Z" fill="#F2EEE2" stroke="#BA8A66" stroke-width="6"/>
</svg>
