<svg xmlns="http://www.w3.org/2000/svg" width="175" height="224" fill="none" viewBox="0 0 175 224"><path fill="#DBCCB3" d="M59.6564 195.404C65.0301 195.304 70.4861 194.761 75.4704 192.744C80.4547 190.728 84.9605 187.076 87.0655 182.125C91.5669 171.541 84.1706 158.865 88.0535 148.039C89.6133 143.689 92.8352 140.171 95.1805 136.19C97.5258 132.208 98.9521 127.068 96.6713 123.05C95.3741 120.766 92.9376 118.899 92.9131 116.272C92.8842 112.866 96.727 111.038 99.337 108.853C103.398 105.455 105 100.016 106.397 94.9045C108.587 86.8988 110.776 78.8954 112.964 70.8897C113.863 67.6032 114.77 64.2008 114.27 60.8297C113.769 57.4585 111.473 54.1074 108.124 53.4991C105.2 52.9688 102.232 54.6577 100.401 56.9995C98.5694 59.3413 97.6504 62.2512 96.7648 65.0921C94.6331 71.9391 92.5014 78.7862 90.3676 85.6333C88.7143 90.9451 86.8719 96.5511 82.6464 100.163C78.4209 103.775 71.0046 104.223 67.905 99.6037C65.8645 96.5622 66.3251 92.5783 66.2984 88.9153C66.2717 85.2522 65.1748 80.943 61.7458 79.6641C57.9921 78.2648 54.1315 81.4265 51.7572 84.6573C45.4602 93.22 42.6187 103.772 39.9018 114.053C35.5228 130.628 31.1304 148.092 35.4004 164.696C38.7981 177.914 46.4659 195.652 59.6564 195.402V195.404ZM69.4692 179.259C86.5537 182.076 104.938 172.452 112.378 156.798C114.626 152.072 116.005 146.82 119.345 142.792C121.424 140.285 124.165 138.384 126.188 135.833C133.137 127.063 129.725 113.672 135.032 103.817C137.903 98.4829 143.281 94.2628 144.044 88.2535C144.638 83.5767 142.044 78.8464 138.183 76.1459C134.323 73.4454 129.403 72.5853 124.71 72.9485C114.989 73.7016 106.117 79.4234 99.9356 86.9746C93.7542 94.5235 89.9915 103.777 87.2724 113.153C85.1096 120.604 83.5765 128.723 86.2644 136C88.9524 143.277 97.31 148.928 104.526 146.1C105.821 145.592 107.076 144.833 108.467 144.819C111.224 144.795 113.182 147.865 113.03 150.621C112.879 153.377 111.268 155.811 109.711 158.09C113.438 152.647 112.674 144.737 108.389 139.723C104.103 134.71 96.8271 132.696 90.4143 134.213C84.0015 135.733 78.5744 140.501 75.6618 146.421C72.8403 152.152 72.3352 159.24 75.3502 164.87C78.3653 170.501 85.2565 174.106 91.3978 172.379C83.7834 175.137 76.1713 177.896 69.467 179.264L69.4692 179.259ZM57.4269 143.362C57.3935 152.152 59.9791 161.109 65.582 167.876C71.1848 174.643 79.974 178.943 88.7188 178.174C95.897 177.544 102.414 173.709 108.062 169.228C112.879 165.405 117.365 160.902 119.87 155.28C123.31 147.558 122.563 138.324 118.825 130.74C115.086 123.155 108.596 117.152 101.222 113.03C95.1961 109.664 88.1713 107.433 81.4025 108.77C73.3142 110.368 66.8814 116.872 63.25 124.285C59.6186 131.698 57.4402 139.884 57.4269 143.36V143.362ZM78.5789 126.424C84.9783 126.531 90.9772 122.879 95.2005 118.064C99.4238 113.249 102.161 107.34 104.842 101.52C114.488 80.5709 124.37 58.2428 121.597 35.342C120.992 30.3421 119.701 25.2441 116.577 21.2959C113.453 17.3476 108.153 14.8098 103.298 16.1244C97.5525 17.6796 94.3171 23.7847 92.8174 29.5511C88.5563 45.9368 92.5682 64.6531 83.7367 79.0914C76.9946 90.1118 63.6728 96.7583 59.6498 109.038C57.0108 117.092 59.5808 126.903 66.5299 131.747C73.4789 136.591 84.3887 135.08 78.5789 126.421V126.424ZM118.104 43.9983C120.198 43.4012 121.695 41.4449 122.296 39.3505C122.897 37.2538 122.741 35.0212 122.474 32.8577C121.826 27.5881 120.278 21.9532 116.023 18.7848C111.302 15.2688 104.324 15.9729 99.524 19.3797C94.7244 22.7887 91.8651 28.3769 90.4076 34.0854C88.9502 39.7939 88.7276 45.7318 88.1424 51.5941C86.5648 67.396 81.7541 83.8151 69.9632 94.4366C73.4744 98.1286 79.6336 98.0952 84.1217 95.6866C88.6097 93.278 91.7828 89.0334 94.6754 84.8378C103.627 71.8478 111.326 58.0423 118.099 43.9983H118.104ZM80.9041 87.5361C77.4285 89.2807 73.5879 90.2923 69.7051 90.4861C78.234 71.2351 80.6304 48.8267 73.7882 28.9139C72.7624 25.9304 71.5163 22.9759 69.5582 20.5049C67.6001 18.0339 64.8499 16.0709 61.7347 15.6052C57.5559 14.9814 53.2859 17.1961 50.6915 20.5361C48.097 23.8761 46.9911 28.1697 46.7419 32.3942C46.4927 36.6188 47.0356 40.8411 47.405 45.0567C48.0903 52.8685 48.1904 60.7361 47.5829 68.5546C47.0311 75.6512 45.8985 82.7968 46.8798 89.8489C47.8611 96.9009 51.4124 104.067 57.794 107.204C63.4058 109.962 70.6507 108.942 75.2834 104.739C79.9162 100.537 81.6451 93.4184 80.9041 87.5383V87.5361ZM59.4184 18.0161C58.3125 15.4938 54.4786 15.3624 52.3447 17.1025C50.2108 18.8427 49.3586 21.6702 48.6154 24.3239C46.2902 32.6304 44.0183 41.7947 47.6608 49.6132C48.3617 51.1195 49.7569 52.7371 51.3545 52.2915C52.6006 51.9416 53.168 50.5268 53.5084 49.2768C55.6379 41.4805 55.7736 33.1473 53.8978 25.2865C53.504 23.6354 52.6985 21.7081 51.0208 21.4808C49.4409 21.2669 48.1637 22.7375 47.4138 24.1457C45.0841 28.5329 44.6858 33.7021 45.0018 38.6597C45.3178 43.6173 46.2968 48.5215 46.5304 53.4835C47.2692 69.1985 40.5827 84.1671 36.8267 99.4432C36.2682 101.716 35.7698 104.049 35.9745 106.379C36.1792 108.71 37.185 111.076 39.1008 112.415C42.6209 114.875 47.6675 112.961 50.6247 109.849C53.5908 106.727 55.3108 102.625 56.5079 98.4874C61.8682 79.9471 57.7495 60.1434 53.6108 41.2912M44.0472 181.746C35.3693 180.378 27.9707 173.985 24.0567 166.111C20.1427 158.237 19.4129 149.066 20.57 140.347C21.727 131.629 24.6664 123.253 27.8128 115.04C31.9003 104.372 36.5174 93.6077 44.292 85.2411C45.9252 83.4831 47.6986 81.8321 49.027 79.8334C53.4595 73.1713 52.0799 64.3679 50.5312 56.5138C54.6989 58.577 55.4821 64.0827 55.7336 68.7306C56.5702 84.3075 57.4046 99.9847 55.4398 115.459C54.9926 118.986 54.3784 122.558 52.7563 125.72C51.1342 128.881 48.3484 131.615 44.8816 132.38C40.1955 133.411 34.991 130.793 30.6453 132.832C28.1131 134.019 26.4576 136.624 25.8012 139.347C25.1448 142.07 25.3606 144.924 25.7189 147.702C27.3187 160.115 31.7267 172.158 44.0495 181.746H44.0472ZM27.3477 186.846C30.1113 193.118 38.2241 195.828 44.7793 193.86C51.3367 191.893 56.2654 186.218 59.0045 179.937C61.7436 173.656 62.6069 166.742 63.4414 159.937C65.8334 140.436 68.192 120.354 63.0787 101.388C61.0405 93.8283 57.8586 86.6381 54.6878 79.4791C53.8422 77.5696 52.6518 75.3927 50.5802 75.1454C48.1192 74.8535 46.397 77.4382 45.2978 79.6596C40.9833 88.3805 36.6487 97.1527 33.8139 106.462C30.9813 115.773 29.6952 125.735 31.5977 135.281C32.2808 138.707 33.1553 142.852 30.583 145.214C28.685 146.954 25.5476 146.929 23.8743 148.888C22.161 150.891 22.7973 153.93 23.6228 156.434C25.5587 162.31 28.0219 168.01 30.9746 173.444C30.6097 174.551 29.2257 174.988 28.0731 174.834C26.9205 174.681 25.8569 174.119 24.7154 173.894C21.4912 173.257 18.1624 175.605 17.0431 178.698C15.9239 181.791 16.7072 185.333 18.4272 188.136C20.1472 190.939 22.715 193.114 25.3518 195.077C33.845 201.4 44.4989 206.18 54.8368 203.912C63.5749 201.995 70.4527 195.46 76.8455 189.197C81.4626 184.674 86.4291 179.304 86.0909 172.845C85.7638 166.597 79.4867 161.33 73.2875 162.098C68.0674 162.747 64.0377 166.793 60.0436 170.22C50.6803 178.252 39.2899 183.898 27.3477 186.844V186.846ZM30.5942 174.571C30.0957 171.737 27.6881 169.364 24.8645 168.832C22.0408 168.299 18.9768 169.592 17.319 171.942C14.1282 176.47 16.6315 182.983 20.6234 186.822C24.3193 190.38 29.397 192.711 34.5081 192.305C39.6192 191.902 44.5702 188.401 45.9074 183.446C47.5718 177.276 43.6779 171.109 42.6009 164.81C40.9788 155.307 45.8295 146.071 48.3818 136.773C51.6727 124.784 51.1031 111.765 46.7752 100.109C45.745 97.3332 43.9048 94.2071 40.9476 94.1469C37.8703 94.0846 35.93 97.3421 34.6595 100.15C29.3036 111.988 23.8898 124.013 21.9495 136.863C20.0092 149.712 21.9607 163.72 30.0245 173.861C29.9778 173.829 29.9311 173.798 30.5942 174.571ZM22.646 160.614C23.5205 164.469 24.553 168.596 27.5391 171.178C30.5252 173.76 36.1191 173.567 37.5766 169.895C38.0972 168.582 37.9993 167.116 37.9059 165.708C36.5797 146.076 37.3029 126.306 40.0621 106.825C40.3179 105.016 40.5827 103.117 39.9397 101.406C39.2966 99.6972 37.3964 98.3113 35.6719 98.9085C34.3613 99.363 33.6292 100.727 33.0329 101.981C30.1291 108.1 27.5013 114.349 25.1604 120.706C22.7373 127.293 20.6078 134.057 19.9692 141.047C19.3306 148.037 21.3577 154.953 22.6438 160.612L22.646 160.614ZM39.2499 198.179C43.0103 204.437 51.1164 206.195 58.3169 207.367C63.7907 208.256 69.3357 209.15 74.854 208.613C80.3723 208.076 85.9529 205.935 89.5242 201.688C93.0955 197.441 94.1458 190.857 91.0618 186.242C100.993 184.594 108.945 177.372 116.279 170.467C119.223 167.695 122.409 164.32 122.038 160.291C121.684 156.457 117.972 153.596 114.167 153.043C110.362 152.491 106.535 153.745 102.997 155.251C94.2548 158.97 86.22 164.344 79.44 171.006C75.4993 174.877 71.7811 179.73 71.9658 185.253C72.0949 189.119 74.1353 193.105 72.6712 196.683C71.1314 200.453 66.3051 201.808 62.2932 201.133C58.2813 200.46 54.6767 198.326 50.8049 197.08C46.931 195.835 42.2337 195.663 38.9272 198.098C39.0051 198.083 39.1475 198.007 39.2521 198.179H39.2499ZM85.5569 183.537C81.6095 178.488 75.2345 175.438 68.8328 175.534C62.4312 175.63 56.1497 178.87 52.3558 184.032C49.6768 187.677 48.2505 192.639 50.0662 196.784C51.4191 199.867 54.3651 202.022 57.5248 203.176C60.6845 204.33 64.0867 204.609 67.4377 204.881C71.8991 205.239 76.4094 205.598 80.8307 204.903C84.7447 204.286 88.6342 202.768 91.4178 199.948C94.2014 197.127 95.7012 192.853 94.5686 189.052C93.4382 185.249 89.3284 182.368 85.5546 183.54L85.5569 183.537ZM114.199 164.202C121.337 161.876 128.809 159.34 133.886 153.805C139.536 147.647 141.229 138.854 145.717 131.802C148.392 127.598 152.017 124.084 154.885 120.009C157.751 115.934 159.889 110.938 158.95 106.043C157.528 98.6411 149.022 94.0645 141.601 95.3212C134.18 96.5779 128.168 102.398 124.73 109.104C121.292 115.809 120.015 123.382 118.78 130.818C117.074 141.109 115.365 151.401 113.658 161.693C114.383 162.359 114.933 163.217 114.915 164.197C114.946 164.15 114.977 164.104 114.201 164.204L114.199 164.202ZM115.187 133.121C111.324 134.752 110.104 139.969 111.493 143.928C112.881 147.887 116.126 150.862 119.25 153.66C122.027 156.147 125.362 158.81 129.036 158.192C133.461 157.45 135.651 152.513 137.086 148.255C139.327 141.6 141.583 134.891 142.489 127.925C143.394 120.96 142.874 113.636 139.774 107.335C142.433 107.779 144.867 104.858 144.411 102.197C143.955 99.5368 141.263 97.634 138.568 97.527C135.874 97.4201 133.292 98.806 131.372 100.698C129.452 102.589 128.083 104.962 126.739 107.304C121.815 115.887 116.835 124.603 115.189 133.121H115.187ZM135.493 87.8391C136.881 88.6256 138.268 89.4122 139.656 90.1987C142.94 89.8333 144.801 85.8026 144.004 82.5896C143.208 79.3767 140.595 76.9591 137.93 75.0028C134.794 72.7034 131.049 70.6825 127.209 71.264C122.774 71.9369 119.621 75.8027 116.922 79.39C116.337 80.1676 115.727 81.0099 115.683 81.9813C115.589 84.0713 117.972 85.2767 119.968 85.8984C125.562 87.6363 131.259 89.0378 135.495 87.8369L135.493 87.8391ZM123.557 160.744C124.33 159.748 124.525 158.333 124.056 157.161C123.586 155.989 122.465 155.109 121.217 154.926C119.394 154.659 117.632 155.822 116.493 157.27C115.353 158.718 114.653 160.461 113.66 162.016C111.649 165.166 108.54 167.41 105.69 169.823C102.839 172.236 100.071 175.086 99.1857 178.718C99.0033 179.471 98.9098 180.289 99.208 181.004C99.6641 182.1 100.952 182.666 102.138 182.613C103.324 182.562 104.428 182.018 105.465 181.439C113.996 176.675 120.685 168.694 123.882 159.454C123.836 159.447 123.789 159.442 123.557 160.741V160.744ZM110.808 86.4109C112.734 86.9568 114.92 87.4737 116.642 86.4488C117.774 85.7736 118.457 84.5615 119.089 83.4029C120.413 80.9787 121.735 78.5567 123.059 76.1325C123.295 75.7002 123.535 75.2546 123.598 74.7666C123.767 73.4543 122.545 72.2912 121.25 72.035C119.955 71.7787 118.629 72.1798 117.367 72.5786C115.394 73.2025 113.4 73.8331 111.611 74.8781C109.822 75.923 108.231 77.4315 107.472 79.3588C106.393 82.1017 107.287 85.4973 109.577 87.3511C109.813 87.5428 110.087 87.7255 110.389 87.7099C110.692 87.6943 110.983 87.3734 110.81 86.4109H110.808ZM116.413 54.0428L118.947 54.1943C121.606 49.9586 122.639 44.8361 122.496 39.834C122.354 34.8318 121.092 29.9232 119.448 25.1973C118.304 21.9153 116.778 18.4639 113.767 16.7327C109.61 14.3419 103.983 16.3338 101.013 20.1016C98.042 23.8694 97.2187 28.8983 97.1097 33.6954C96.9784 39.5064 97.7527 45.3352 99.3971 50.91C100.378 54.2366 102.016 57.8328 105.271 59.0204C107.323 59.7691 109.655 59.3725 111.624 58.43C113.596 57.4875 115.276 56.0414 116.413 54.0428Z"/><path stroke="#DBCCB3" stroke-linecap="round" stroke-linejoin="round" stroke-width="29.744" d="M69.3585 90.9822C77.9007 74.5274 80.7244 55.1649 77.2376 36.9521C76.1028 31.0209 74.1892 24.9848 70.0372 20.6066C65.8851 16.226 59.0117 13.9756 53.6135 16.6694C48.6426 19.1494 46.2328 24.947 45.4228 30.4482C43.8764 40.9427 46.6333 51.5999 46.2617 62.2036C45.7455 76.9093 39.2949 90.668 33 103.965C26.7052 117.263 20.3257 131.071 19.9675 145.783C19.6115 160.495 26.9343 176.449 40.7345 181.507"/><path stroke="#DBCCB3" stroke-linecap="round" stroke-linejoin="round" stroke-width="29.744" d="M52.1441 159.895C56.2873 153.099 63.3765 148.179 71.1867 146.679C76.6627 145.63 82.319 146.198 87.864 145.617C93.409 145.033 99.2767 142.945 102.198 138.188C106.246 131.597 102.601 122.324 96.0792 118.177C89.5551 114.031 81.2175 113.982 73.6188 115.39C59.9298 117.928 47.0864 124.85 37.4316 134.893"/><path stroke="#DBCCB3" stroke-linecap="round" stroke-linejoin="round" stroke-width="29.744" d="M52.6022 123.122C50.0367 118.399 44.7543 115.284 39.3828 115.333"/><path stroke="#DBCCB3" stroke-linecap="round" stroke-linejoin="round" stroke-width="29.744" d="M69.7156 148.59C73.0133 159.688 68.0957 172.7 58.2852 178.832"/><path stroke="#DBCCB3" stroke-linecap="round" stroke-linejoin="round" stroke-width="29.744" d="M119.736 88.2617C106.884 91.5839 96.3457 102.611 93.5977 115.614"/><path stroke="#DBCCB3" stroke-linecap="round" stroke-linejoin="round" stroke-width="29.744" d="M105.068 134.768C108.101 138.777 114.398 139.064 118.724 136.506C123.047 133.948 125.702 129.296 127.511 124.606C129.318 119.913 130.488 114.956 132.836 110.508C135.123 106.177 138.443 102.489 141.14 98.4007C143.837 94.312 145.962 89.5104 145.374 84.6464C144.624 78.4388 139.293 73.3408 133.212 71.9193C127.13 70.4977 120.589 72.3649 115.48 75.9656"/><path stroke="#DBCCB3" stroke-linecap="round" stroke-linejoin="round" stroke-width="29.744" d="M115.981 138.782C113.978 144.088 114.367 150.534 117.997 154.89C121.626 159.246 128.764 160.62 133.176 157.062C136.149 154.665 137.371 150.774 138.726 147.2C141.723 139.299 146.082 131.92 151.554 125.485C154.764 121.708 158.489 118.014 159.658 113.194C160.921 107.978 158.594 102.087 154.112 99.1483C149.629 96.2072 143.307 96.4278 139.037 99.6697"/><path stroke="#DBCCB3" stroke-linecap="round" stroke-linejoin="round" stroke-width="29.744" d="M124.496 158.348C120.44 169.366 112.107 178.74 101.649 184.054C91.1904 189.368 78.7141 190.564 67.4395 187.336"/><path stroke="#DBCCB3" stroke-linecap="round" stroke-linejoin="round" stroke-width="29.744" d="M92.3975 188.012C95.9488 192.091 94.5202 198.869 90.5995 202.595C86.6789 206.32 81.0649 207.617 75.6868 208.163C58.1862 209.939 40.096 205.099 25.8129 194.819C20.9555 191.323 16.2404 186.693 15.4995 180.748C14.7585 174.803 20.2078 168.097 25.9531 169.768"/><path stroke="#DBCCB3" stroke-linecap="round" stroke-linejoin="round" stroke-width="29.744" d="M109.108 87.5824C118.885 72.2618 123.85 53.9086 123.127 35.7427C122.857 28.9513 121.302 21.3467 115.601 17.6569C110.061 14.0696 102.25 15.7563 97.3952 20.2282C92.54 24.7 90.1992 31.3176 89.1868 37.846C88.1744 44.3744 88.3167 51.0299 87.4979 57.585C85.9937 69.6237 81.1874 81.2322 73.7422 90.8065"/><path stroke="#DBCCB3" stroke-linecap="round" stroke-linejoin="round" stroke-width="29.744" d="M94.4182 95.9257C82.0487 89.58 66.8578 89.0408 54.0723 94.4908"/><path stroke="#1E1E1E" stroke-linecap="round" stroke-linejoin="round" stroke-width="5.949" d="M69.3585 90.4783C77.9007 74.0235 80.7244 54.661 77.2376 36.4482C76.1028 30.5169 74.1892 24.4809 70.0372 20.1027C65.8851 15.7221 59.0117 13.4717 53.6135 16.1655C48.6426 18.6455 46.2328 24.4431 45.4228 29.9443C43.8764 40.4388 46.6333 51.096 46.2617 61.6997C45.7455 76.4054 39.2949 90.1641 33 103.462C26.7052 116.759 20.3257 130.567 19.9675 145.279C19.6115 159.992 26.9343 175.945 40.7345 181.003"/><path stroke="#1E1E1E" stroke-linecap="round" stroke-linejoin="round" stroke-width="5.949" d="M52.1441 159.391C56.2873 152.595 63.3765 147.675 71.1867 146.176C76.6627 145.126 82.319 145.694 87.864 145.113C93.409 144.529 99.2767 142.441 102.198 137.684C106.246 131.093 102.601 121.82 96.0792 117.673C89.5551 113.527 81.2175 113.478 73.6188 114.886C59.9298 117.424 47.0864 124.347 37.4316 134.389"/><path stroke="#1E1E1E" stroke-linecap="round" stroke-linejoin="round" stroke-width="5.949" d="M52.6022 122.622C50.0367 117.899 44.7543 114.784 39.3828 114.833"/><path stroke="#1E1E1E" stroke-linecap="round" stroke-linejoin="round" stroke-width="5.949" d="M69.7156 148.086C73.0133 159.184 68.0957 172.197 58.2852 178.328"/><path stroke="#1E1E1E" stroke-linecap="round" stroke-linejoin="round" stroke-width="5.949" d="M119.736 87.7578C106.884 91.08 96.3457 102.107 93.5977 115.11"/><path stroke="#1E1E1E" stroke-linecap="round" stroke-linejoin="round" stroke-width="5.949" d="M103.672 129.028C104.626 136.742 114.397 138.56 118.723 136.002C123.046 133.444 125.701 128.792 127.51 124.102C129.316 119.409 130.487 114.452 132.834 110.004C135.122 105.673 138.442 101.985 141.138 97.8968C143.835 93.8081 145.96 89.0065 145.373 84.1425C144.623 77.9349 139.292 72.8369 133.21 71.4154C127.129 69.9938 120.587 71.861 115.478 75.4617"/><path stroke="#1E1E1E" stroke-linecap="round" stroke-linejoin="round" stroke-width="5.949" d="M115.981 138.279C113.978 143.584 114.367 150.03 117.997 154.386C121.626 158.742 128.764 160.117 133.176 156.559C136.149 154.161 137.371 150.271 138.726 146.697C141.723 138.796 146.082 131.417 151.554 124.982C154.764 121.205 158.489 117.511 159.658 112.691C160.921 107.475 158.594 101.584 154.112 98.6452C149.629 95.7041 144.711 95.6818 140.441 98.9237"/><path stroke="#1E1E1E" stroke-linecap="round" stroke-linejoin="round" stroke-width="5.949" d="M124.051 158.59C119.995 169.608 112.107 178.238 101.649 183.552C91.1904 188.866 78.7141 190.062 67.4395 186.834"/><path stroke="#1E1E1E" stroke-linecap="round" stroke-linejoin="round" stroke-width="5.949" d="M92.3975 187.508C95.9488 191.587 94.5202 198.365 90.5995 202.091C86.6789 205.816 81.0649 207.113 75.6868 207.659C58.1862 209.435 40.096 204.595 25.8129 194.315C20.9555 190.819 16.2404 186.189 15.4995 180.244C14.7585 174.299 20.2078 167.593 25.9531 169.264"/><path stroke="#1E1E1E" stroke-linecap="round" stroke-linejoin="round" stroke-width="5.949" d="M109.108 87.0785C118.885 71.7579 123.85 53.4047 123.127 35.2387C122.857 28.4474 121.302 20.8428 115.601 17.153C110.061 13.5657 102.25 15.2524 97.3952 19.7243C92.54 24.1961 90.1992 30.8137 89.1868 37.3421C88.1744 43.8705 88.3167 50.526 87.4979 57.0811C85.9937 69.1198 81.1874 80.7283 73.7422 90.3026"/><path stroke="#1E1E1E" stroke-linecap="round" stroke-linejoin="round" stroke-width="5.949" d="M94.4182 95.4218C82.0487 89.0761 66.8578 88.5369 54.0723 93.9869"/></svg>