<svg width="1440" height="160" viewBox="0 0 1440 160" fill="none" xmlns="http://www.w3.org/2000/svg">
<path d="M29.8207 92.5267C23.7665 91.697 3.41765 105.664 -6 112.751V-6H1446V110.159C1441.8 110.332 1431.97 110.055 1426.32 107.566C1420.67 105.077 1412.53 102.381 1409.17 101.343C1384.45 101.343 1390 115.345 1370.83 122.605C1351.66 129.865 1335.51 107.048 1329.96 101.343C1324.41 95.6392 1293.64 84.7493 1275.98 115.345C1258.32 145.94 1247.72 146.459 1229.56 133.495C1211.4 120.53 1206.35 120.53 1189.71 125.198C1173.06 129.865 1161.96 125.198 1150.86 112.233C1139.76 99.2692 1130.68 96.6763 1128.15 96.6763C1092.33 92.5278 1100.41 145.94 1066.1 158.386C1031.79 170.831 1030.28 107.566 1013.63 96.6763C996.98 85.7864 981.844 99.2692 971.25 107.566C960.655 115.863 935.933 104.455 920.293 101.343C904.653 98.232 901.122 114.826 882.455 123.642C863.787 132.457 855.715 105.492 834.525 96.1578C813.336 86.8236 796.182 110.159 785.083 127.272C773.983 144.385 757.334 141.792 747.748 136.087C738.163 130.383 730.595 122.605 718.991 121.049C707.387 119.493 693.261 127.272 679.639 125.198C666.017 123.123 660.972 96.6763 636.755 96.6763C612.538 96.6763 603.961 147.496 584.285 156.312C564.609 165.127 554.014 145.422 548.464 130.902C542.915 116.382 533.329 97.7135 522.229 94.0835C513.35 91.1795 497.676 101.862 490.949 107.566C466.228 121.049 457.147 108.085 436.966 97.7135C416.785 87.3421 404.172 120.53 386.514 121.568C368.856 122.605 361.288 100.825 339.594 94.0835C317.9 87.3421 301.755 135.569 287.124 144.385C272.493 153.2 241.718 107.048 223.555 123.642C209.025 136.917 189.921 120.53 182.185 110.678C178.821 107.221 170.076 97.1949 152.418 99.7877C132.934 102.649 115.337 141.643 112.057 146.459C104.994 156.83 74.7227 171.869 64.1279 132.457C53.533 93.0464 37.3885 93.5639 29.8207 92.5267Z" fill="#1E1E1E"/>
<path d="M184.544 108.825L184.446 108.7L184.335 108.586C184.193 108.44 184.04 108.281 183.877 108.11C180.099 104.18 170.422 94.1119 151.983 96.8196C146.242 97.6625 140.945 101.099 136.309 105.414C131.636 109.763 127.362 115.261 123.676 120.709C119.98 126.172 116.814 131.676 114.38 136.088C113.53 137.63 112.76 139.053 112.093 140.287C111.809 140.813 111.543 141.304 111.298 141.755C110.438 143.338 109.884 144.32 109.577 144.77C108.13 146.895 105.301 149.492 101.605 151.575C97.9339 153.644 93.6471 155.07 89.377 155.127C85.1717 155.183 80.9216 153.919 77.0934 150.494C73.218 147.027 69.5746 141.163 67.025 131.679C61.6428 111.658 54.7124 101.227 47.686 95.7377C41.428 90.8489 35.354 90.1518 31.5768 89.7184C31.0871 89.6622 30.6359 89.6104 30.228 89.5545C28.8788 89.3696 27.4382 89.6168 26.1366 89.9735C24.7814 90.3449 23.3 90.9149 21.7663 91.6028C18.6964 92.9796 15.1702 94.9414 11.6118 97.1074C6.56622 100.179 1.3222 103.743 -3 106.834V-3H1443V107.196C1441.25 107.176 1439.15 107.085 1436.99 106.875C1433.4 106.525 1429.91 105.869 1427.53 104.821C1421.72 102.26 1413.45 99.5234 1410.05 98.4766L1409.62 98.3434H1409.17C1402.72 98.3434 1397.99 99.2561 1394.24 100.897C1390.46 102.551 1387.92 104.849 1385.72 107.209C1384.99 107.995 1384.3 108.781 1383.62 109.56C1380.26 113.384 1377.05 117.04 1369.76 119.799C1361.63 122.879 1353.93 119.726 1347.12 114.462C1342.1 110.579 1338.12 106.028 1335.11 102.586C1333.98 101.284 1332.98 100.141 1332.11 99.2514C1330.25 97.3417 1326.78 95.398 1322.64 93.9829C1318.39 92.535 1313.11 91.5242 1307.4 91.7337C1295.83 92.1584 1282.75 97.6039 1273.38 113.845C1269.01 121.408 1265.16 126.972 1261.61 130.896C1258.05 134.82 1254.92 136.955 1252.03 137.904C1246.42 139.739 1240.36 137.513 1231.31 131.053C1222.22 124.566 1215.94 120.954 1209.61 119.784C1203.23 118.605 1197.18 119.986 1188.9 122.309C1181 124.521 1174.72 124.447 1169.2 122.498C1163.63 120.534 1158.5 116.543 1153.14 110.282C1147.39 103.568 1142.08 99.4464 1137.78 96.9881C1133.7 94.6574 1130.36 93.7358 1128.35 93.6791C1118.6 92.5873 1111.54 95.4305 1106.09 100.653C1100.82 105.709 1097.2 112.884 1093.84 120.035C1093.4 120.985 1092.96 121.936 1092.51 122.885C1086.09 136.715 1079.81 150.221 1065.08 155.566C1061.18 156.979 1057.93 157.255 1055.17 156.795C1052.42 156.336 1049.96 155.111 1047.69 153.22C1043.04 149.351 1039.34 142.841 1036 135.092C1034.34 131.263 1032.82 127.238 1031.31 123.217C1031.16 122.81 1031.01 122.404 1030.85 121.997C1029.51 118.407 1028.18 114.831 1026.8 111.512C1025.26 107.819 1023.63 104.333 1021.81 101.385C1019.99 98.4584 1017.87 95.8667 1015.27 94.1657C1005.91 88.0458 996.871 88.8277 988.998 92.1639C982.246 95.0252 976.147 99.8606 971.275 103.723C970.628 104.236 970.003 104.732 969.4 105.204C967.473 106.713 964.692 107.487 960.981 107.532C957.284 107.576 952.984 106.892 948.344 105.811C943.997 104.799 939.503 103.475 935.07 102.17L934.21 101.917C929.552 100.547 924.944 99.2098 920.879 98.4011C916.383 97.5067 912.597 98.0175 909.188 99.5344C905.882 101.006 903.086 103.36 900.454 105.834C899.538 106.695 898.631 107.58 897.712 108.475C893.225 112.848 888.466 117.485 881.173 120.929C877.223 122.795 874.071 122.709 871.151 121.581C868.041 120.379 864.985 117.917 861.527 114.555C860.242 113.306 858.91 111.934 857.515 110.497C851.703 104.512 844.804 97.4074 835.735 93.4123C823.712 88.1163 812.926 92.2755 804.121 99.4747C795.397 106.607 788.116 117.083 782.566 125.639C777.479 133.482 771.32 136.585 765.505 137.256C759.553 137.942 753.649 136.108 749.283 133.509C746.986 132.143 744.792 130.641 742.555 129.086C742.306 128.913 742.055 128.739 741.805 128.564C739.829 127.189 737.802 125.779 735.722 124.472C731.001 121.506 725.788 118.933 719.39 118.076C713.338 117.264 706.772 118.739 700.632 120.118C700.226 120.209 699.821 120.3 699.419 120.39C692.677 121.893 686.268 123.172 680.09 122.232C677.628 121.857 675.322 120.352 672.72 117.746C671.013 116.037 669.418 114.119 667.662 112.008C666.655 110.798 665.596 109.523 664.431 108.187C658.275 101.128 650.199 93.6763 636.755 93.6763C629.53 93.6763 623.712 97.4999 618.901 102.722C614.114 107.917 610.007 114.834 606.191 121.737C605.239 123.46 604.306 125.18 603.383 126.882C600.539 132.123 597.79 137.19 594.872 141.626C590.982 147.54 587.152 151.74 583.058 153.574C578.636 155.555 574.937 155.85 571.804 155.17C568.641 154.484 565.78 152.745 563.168 150.206C557.863 145.05 554.016 137.023 551.267 129.831C548.45 122.461 544.579 113.955 539.948 106.782C535.41 99.7524 529.758 93.3895 523.162 91.2321C520.204 90.2647 516.938 90.4975 513.837 91.2468C510.703 92.0041 507.469 93.3545 504.409 94.9293C498.429 98.0069 492.764 102.125 489.249 105.076C483.428 108.219 478.683 109.735 474.59 110.192C470.47 110.652 466.851 110.058 463.276 108.764C459.639 107.448 456.061 105.418 451.99 102.957C451.297 102.538 450.59 102.107 449.868 101.667C446.411 99.5587 442.609 97.2408 438.337 95.0452C432.467 92.0283 426.995 92.1693 421.966 94.123C417.118 96.0065 412.751 99.5476 408.782 103.137C407.445 104.347 406.162 105.551 404.907 106.73C402.285 109.193 399.785 111.541 397.168 113.576C393.35 116.544 389.843 118.367 386.338 118.573C378.914 119.009 373.482 114.758 366.58 108.517C366.099 108.083 365.613 107.64 365.12 107.191C358.752 101.394 351.249 94.5637 340.484 91.2186C333.786 89.1372 327.699 91.434 322.464 95.4872C317.289 99.4942 312.565 105.488 308.249 111.686C306.074 114.809 303.961 118.047 301.921 121.181L301.62 121.644C299.679 124.628 297.808 127.503 295.977 130.152C292.033 135.857 288.607 139.989 285.576 141.815C283.452 143.095 280.192 142.699 275.001 139.89C271.074 137.766 266.828 134.706 262.266 131.419C261.001 130.508 259.712 129.58 258.399 128.649C252.525 124.484 246.179 120.285 240.026 118.271C233.711 116.204 227.129 116.313 221.532 121.427C218.411 124.278 215.159 125.46 211.915 125.605C208.605 125.753 205.116 124.825 201.632 123.134C194.616 119.729 188.241 113.533 184.544 108.825Z" stroke="#D0A15F" stroke-opacity="0.51" stroke-width="6"/>
</svg>
