<svg width="22" height="16" viewBox="0 0 22 16" fill="none" xmlns="http://www.w3.org/2000/svg">
<path d="M21.0537 2.08162C20.9916 2.00514 20.9134 1.94336 20.8247 1.90071C20.7359 1.85806 20.6388 1.8356 20.5403 1.83495H6.66032L7.09365 3.16829H19.667L17.887 11.1683H7.88698L4.84032 1.52162C4.80736 1.41926 4.75014 1.32639 4.67352 1.25093C4.5969 1.17548 4.50317 1.11967 4.40032 1.08829L1.66698 0.248286C1.58294 0.222459 1.49463 0.213439 1.4071 0.221742C1.31956 0.230044 1.23453 0.255506 1.15683 0.296673C0.999928 0.379814 0.882477 0.52188 0.830318 0.691619C0.778158 0.861357 0.795564 1.04486 0.878705 1.20177C0.961846 1.35868 1.10391 1.47613 1.27365 1.52829L3.66698 2.26162L6.72698 11.9283L5.63365 12.8216L5.54698 12.9083C5.27654 13.2199 5.12325 13.6162 5.11352 14.0287C5.10378 14.4412 5.23821 14.8442 5.49365 15.1683C5.67536 15.3893 5.90626 15.5646 6.16788 15.6804C6.4295 15.7962 6.71458 15.8491 7.00032 15.835H18.127C18.3038 15.835 18.4734 15.7647 18.5984 15.6397C18.7234 15.5147 18.7937 15.3451 18.7937 15.1683C18.7937 14.9915 18.7234 14.8219 18.5984 14.6969C18.4734 14.5719 18.3038 14.5016 18.127 14.5016H6.89365C6.81688 14.499 6.74209 14.4766 6.67649 14.4367C6.61089 14.3967 6.55671 14.3405 6.51918 14.2735C6.48165 14.2064 6.46204 14.1309 6.46224 14.0541C6.46243 13.9772 6.48244 13.9018 6.52032 13.835L8.12698 12.5016H18.4203C18.5744 12.5054 18.7251 12.4556 18.8466 12.3608C18.9682 12.266 19.0531 12.132 19.087 11.9816L21.2003 2.64829C21.2206 2.5489 21.2179 2.44619 21.1925 2.34799C21.1671 2.2498 21.1196 2.15869 21.0537 2.08162Z" fill="#E4DDCD"/>
</svg>
